# xmcd CD database file
#
# Track frame offsets:
#	150
#	3525
#	9320
#	14815
#	29837
#	40327
#	52207
#	58850
#	70330
#	78105
#	93415
#	103977
#	110375
#	117575
#	124665
#	137262
#	146930
#	155395
#	165667
#	171120
#	182230
#	191280
#	192795
#	194640
#	201522
#	206377
#	215600
#	230650
#	237402
#	255620
#
# Disc length: 3523 seconds
#
# Revision: 3
# Processed by: cddbd v1.5.1PL0 Copyright (c) Steve Scherf et al.
# Submitted via: CDex 1.51
#
DISCID=c40dc11e
DTITLE=ZSD - Ehre and Gerechtigkeit
DYEAR=1981
DGENRE=Punk
TTITLE0=1,2,3,4
TTITLE1=Discos
TTITLE2=Ich 
TTITLE3=Ich bin kein Clown
TTITLE4=Frustriert
TTITLE5=Knast
TTITLE6=Bundeswehr
TTITLE7=Fotogen
TTITLE8=Alt genug
TTITLE9=Pyromanie
TTITLE10=Gott???..
TTITLE11=Ich bin Radikal
TTITLE12=Polizeistaat BRD
TTITLE13=Freunde?
TTITLE14=Feigling!
TTITLE15=H-
TTITLE16=Krawall im Jahre 1981
TTITLE17=Werwelpen
TTITLE18=Verpiﬂ dich !!
TTITLE19=ß? Notwehr
TTITLE20=4er Tram (Keine ExperimenteSampler)
TTITLE21=R.R.F.J.S.A.U.S. (Live GAGA Wien)
TTITLE22=Bombenterror (Live GAGA Wien)
TTITLE23=Arbeitslos (Live GAGA Wien)
TTITLE24=Bundeswehr (Live GAGA Wien)
TTITLE25=Fotogen (Live GAGA Wien)
TTITLE26=4er Tram (Live GAGA Wien)
TTITLE27=Amis (Live GAGA Wien)
TTITLE28=Drecksskins
TTITLE29=SMP
EXTD=YEAR: 1981
EXTT0=
EXTT1=
EXTT2=
EXTT3=
EXTT4=
EXTT5=
EXTT6=
EXTT7=
EXTT8=
EXTT9=
EXTT10=
EXTT11=
EXTT12=
EXTT13=
EXTT14=
EXTT15=
EXTT16=
EXTT17=
EXTT18=
EXTT19=
EXTT20=
EXTT21=
EXTT22=
EXTT23=
EXTT24=
EXTT25=
EXTT26=
EXTT27=
EXTT28=
EXTT29=
PLAYORDER=
